G04 Layer_Physical_Order=1*
G04 Layer_Color=255*
%FSLAX25Y25*%
%MOIN*%
G70*
G01*
G75*
G04:AMPARAMS|DCode=10|XSize=61.02mil|YSize=82.68mil|CornerRadius=7.63mil|HoleSize=0mil|Usage=FLASHONLY|Rotation=0.000|XOffset=0mil|YOffset=0mil|HoleType=Round|Shape=RoundedRectangle|*
%AMROUNDEDRECTD10*
21,1,0.06102,0.06742,0,0,0.0*
21,1,0.04577,0.08268,0,0,0.0*
1,1,0.01526,0.02288,-0.03371*
1,1,0.01526,-0.02288,-0.03371*
1,1,0.01526,-0.02288,0.03371*
1,1,0.01526,0.02288,0.03371*
%
%ADD10ROUNDEDRECTD10*%
G04:AMPARAMS|DCode=11|XSize=108.27mil|YSize=82.68mil|CornerRadius=10.34mil|HoleSize=0mil|Usage=FLASHONLY|Rotation=180.000|XOffset=0mil|YOffset=0mil|HoleType=Round|Shape=RoundedRectangle|*
%AMROUNDEDRECTD11*
21,1,0.10827,0.06201,0,0,180.0*
21,1,0.08760,0.08268,0,0,180.0*
1,1,0.02067,-0.04380,0.03100*
1,1,0.02067,0.04380,0.03100*
1,1,0.02067,0.04380,-0.03100*
1,1,0.02067,-0.04380,-0.03100*
%
%ADD11ROUNDEDRECTD11*%
%ADD12R,0.03937X0.03937*%
%ADD13R,0.06299X0.10630*%
%ADD14R,0.06000X0.02400*%
%ADD15O,0.06000X0.02400*%
%ADD16R,0.03543X0.02756*%
%ADD17R,0.02756X0.03543*%
%ADD18C,0.01969*%
%ADD19C,0.01000*%
%ADD20C,0.03937*%
%ADD21C,0.07087*%
%ADD22C,0.02362*%
%ADD23C,0.03150*%
G36*
X60458Y196303D02*
Y196299D01*
X62008Y196177D01*
Y184774D01*
X43307Y184774D01*
X42855Y184587D01*
X42668Y184135D01*
Y169914D01*
X30037D01*
X29916Y169995D01*
X29217Y170134D01*
X25617D01*
X24919Y169995D01*
X24326Y169599D01*
X23931Y169007D01*
X23835Y168526D01*
X23226Y168239D01*
X23031Y168216D01*
X22047Y169200D01*
Y170579D01*
X17323D01*
Y166642D01*
X20064D01*
X21851Y164854D01*
X21525Y164067D01*
X17323D01*
Y164025D01*
X16142D01*
Y164067D01*
X11417D01*
Y163862D01*
X11359Y163838D01*
X11172Y163386D01*
Y156496D01*
X11359Y156044D01*
X11359Y156044D01*
X15296Y152107D01*
X15748Y151920D01*
X21654D01*
X22106Y152107D01*
X22293Y152559D01*
Y163299D01*
X22514Y163477D01*
X23020Y163685D01*
X23890Y162816D01*
X23931Y162610D01*
X24326Y162018D01*
X24919Y161622D01*
X25617Y161483D01*
X29217D01*
X29916Y161622D01*
X30508Y162018D01*
X30904Y162610D01*
X31043Y163309D01*
X30904Y164007D01*
X30508Y164599D01*
X29916Y164995D01*
X29217Y165134D01*
X26113D01*
X25525Y165723D01*
X25534Y165798D01*
X25878Y166483D01*
X29217D01*
X29916Y166622D01*
X30037Y166703D01*
X35654D01*
Y161178D01*
X34390Y159914D01*
X30037D01*
X29916Y159995D01*
X29217Y160134D01*
X25617D01*
X24919Y159995D01*
X24326Y159599D01*
X23931Y159007D01*
X23792Y158308D01*
X23931Y157610D01*
X24326Y157018D01*
X24919Y156622D01*
X25617Y156483D01*
X29217D01*
X29916Y156622D01*
X30037Y156703D01*
X35055D01*
X35055Y156703D01*
X35670Y156825D01*
X36191Y157173D01*
X38395Y159378D01*
X38395Y159378D01*
X38743Y159899D01*
X38866Y160513D01*
Y166703D01*
X42668D01*
Y166419D01*
X42841Y165927D01*
X42668Y165434D01*
Y152986D01*
X42023Y152294D01*
X33323D01*
X32871Y152107D01*
X32684Y151655D01*
Y146371D01*
X24465D01*
X24465Y146371D01*
X23850Y146249D01*
X23329Y145900D01*
X21361Y143932D01*
X21013Y143411D01*
X20890Y142797D01*
X20890Y142797D01*
Y114253D01*
X20890Y114253D01*
X21013Y113639D01*
X21361Y113118D01*
X23330Y111148D01*
X23400Y110913D01*
X23221Y110144D01*
X23038Y110046D01*
X22496Y110154D01*
X21805Y110017D01*
X21219Y109625D01*
X20827Y109039D01*
X20690Y108348D01*
X20827Y107657D01*
X20890Y107562D01*
Y95053D01*
X20890Y95052D01*
X21013Y94438D01*
X21361Y93917D01*
X23825Y91452D01*
Y89485D01*
X23835Y89462D01*
X23773Y89347D01*
X23187Y88956D01*
X22796Y88370D01*
X22773Y88258D01*
X21361Y86845D01*
X21013Y86325D01*
X20890Y85710D01*
X20890Y85710D01*
Y74883D01*
X20890Y74883D01*
X21013Y74269D01*
X21361Y73748D01*
X23825Y71283D01*
Y56102D01*
X24013Y55650D01*
X24465Y55463D01*
X25285D01*
X25330Y55236D01*
X25630Y54789D01*
X26077Y54489D01*
X26605Y54384D01*
X31182D01*
X31710Y54489D01*
X32158Y54789D01*
X32377Y55116D01*
X32500Y55249D01*
X33179Y55458D01*
X33478Y55309D01*
X33776Y54864D01*
X34313Y54505D01*
X34947Y54379D01*
X36762D01*
X36762Y48841D01*
X36950Y48389D01*
X37402Y48202D01*
X38344D01*
X38887Y48130D01*
X39354Y47937D01*
X39755Y47629D01*
X40063Y47228D01*
X40256Y46761D01*
X40322Y46260D01*
X40256Y45759D01*
X40063Y45292D01*
X39755Y44891D01*
X39354Y44583D01*
X38887Y44389D01*
X38344Y44318D01*
X37402D01*
X36950Y44131D01*
X36762Y43679D01*
X36762Y39083D01*
X36950Y38631D01*
X39729Y35852D01*
X40063Y35417D01*
X40256Y34950D01*
X40293Y34674D01*
X40293Y34674D01*
X40537Y34250D01*
X40878Y33988D01*
X41438Y33259D01*
X41791Y32408D01*
X41911Y31496D01*
X41791Y30584D01*
X41438Y29734D01*
X40878Y29004D01*
X40148Y28444D01*
X39298Y28091D01*
X38386Y27971D01*
X37861Y28040D01*
X37839Y28035D01*
X37819Y28045D01*
X37606Y27972D01*
X37388Y27914D01*
X37377Y27894D01*
X37356Y27887D01*
X36980Y27558D01*
X36970Y27538D01*
X36950Y27529D01*
X36863Y27321D01*
X36764Y27119D01*
X36771Y27098D01*
X36762Y27077D01*
X36762Y20607D01*
X36950Y20155D01*
X46818Y10288D01*
X47270Y10100D01*
X62008D01*
Y833D01*
X60458Y711D01*
Y708D01*
X60458Y708D01*
X47102D01*
X47102Y708D01*
Y711D01*
X45353Y849D01*
X43648Y1258D01*
X42027Y1930D01*
X41528Y2236D01*
X41511Y2206D01*
X6078Y22663D01*
X6095Y22693D01*
X5098Y23304D01*
X3764Y24443D01*
X2624Y25777D01*
X1708Y27273D01*
X1037Y28894D01*
X627Y30599D01*
X489Y32348D01*
X486D01*
X486Y32348D01*
Y164662D01*
X486Y164662D01*
X489D01*
X627Y166411D01*
X1037Y168117D01*
X1708Y169738D01*
X2624Y171234D01*
X3764Y172568D01*
X5098Y173707D01*
X6095Y174318D01*
X6095Y174318D01*
X6095Y174318D01*
X6107Y174364D01*
X41511Y194805D01*
X41528Y194775D01*
X42027Y195081D01*
X43648Y195752D01*
X45353Y196162D01*
X47102Y196299D01*
Y196303D01*
X47102Y196303D01*
X60458D01*
X60458Y196303D01*
D02*
G37*
G36*
X76630Y169433D02*
X76630Y162482D01*
X64819D01*
Y171340D01*
X63915Y172244D01*
X57849D01*
X57674Y172069D01*
X57573Y172049D01*
X57126Y171750D01*
X56827Y171302D01*
X56807Y171202D01*
X55961Y170356D01*
X55961Y152639D01*
X43307D01*
Y165434D01*
X53008D01*
X53008Y171340D01*
X56865Y175197D01*
X70866D01*
X76630Y169433D01*
D02*
G37*
G36*
X65030Y183425D02*
X66091Y181694D01*
X67409Y180149D01*
X68954Y178831D01*
X70685Y177769D01*
X72561Y176992D01*
X74536Y176518D01*
X76560Y176359D01*
X77614Y176442D01*
X77614Y176442D01*
Y176442D01*
X78585Y176518D01*
X80560Y176992D01*
X82436Y177769D01*
X84167Y178831D01*
X85711Y180149D01*
X87030Y181694D01*
X87482Y182431D01*
X99938Y175239D01*
X99921Y175209D01*
X100918Y174599D01*
X102252Y173459D01*
X103391Y172125D01*
X104308Y170630D01*
X104979Y169009D01*
X105173Y168201D01*
Y152639D01*
X92378D01*
Y162482D01*
X77614D01*
Y169433D01*
X76859Y170189D01*
Y170503D01*
X76733Y171137D01*
X76374Y171674D01*
X75836Y172033D01*
X75203Y172159D01*
X74888D01*
X71770Y175277D01*
X71690D01*
X71318Y175649D01*
X70866Y175836D01*
X56865D01*
X56413Y175649D01*
X56041Y175277D01*
X55961D01*
X52024Y171340D01*
Y166419D01*
X43307Y166419D01*
Y184135D01*
X64735Y184135D01*
X65030Y183425D01*
D02*
G37*
G36*
X21654Y152559D02*
X15748D01*
X11811Y156496D01*
X11811D01*
Y163386D01*
X21654D01*
Y152559D01*
D02*
G37*
G36*
X63835Y171340D02*
Y161497D01*
X82535D01*
Y142797D01*
X60882D01*
Y152639D01*
X56945D01*
Y170356D01*
X57929Y171340D01*
X63835Y171340D01*
D02*
G37*
G36*
X91394Y151655D02*
X105173D01*
Y132954D01*
X88441D01*
Y142797D01*
X83520D01*
Y161497D01*
X91394D01*
Y151655D01*
D02*
G37*
G36*
X52024Y132954D02*
X33323D01*
Y151655D01*
X52024D01*
Y132954D01*
D02*
G37*
G36*
X59898Y141812D02*
X79583D01*
Y123112D01*
X64819D01*
Y132954D01*
X53008D01*
Y151655D01*
X59898D01*
Y141812D01*
D02*
G37*
G36*
X87457Y131970D02*
X105173D01*
Y113269D01*
X92378D01*
Y123112D01*
X80567D01*
Y141812D01*
X87457D01*
Y131970D01*
D02*
G37*
G36*
X55961Y113269D02*
X37260D01*
Y131970D01*
X55961D01*
Y113269D01*
D02*
G37*
G36*
X32339Y131970D02*
X36276D01*
Y113473D01*
X36072Y113269D01*
X25751D01*
X24465Y114556D01*
Y142494D01*
X24767Y142797D01*
X32339D01*
Y131970D01*
D02*
G37*
G36*
X52024Y94568D02*
X33323D01*
Y109695D01*
X36374D01*
X36374Y109695D01*
X36887Y109797D01*
X36988Y109817D01*
X37509Y110165D01*
X39629Y112285D01*
X52024D01*
Y94568D01*
D02*
G37*
G36*
X63835Y122127D02*
X82535D01*
Y103427D01*
X60882D01*
Y113269D01*
X56945D01*
Y131970D01*
X63835D01*
Y122127D01*
D02*
G37*
G36*
X28660Y111785D02*
X28564Y111301D01*
X28701Y110609D01*
X29093Y110023D01*
X29679Y109632D01*
X30370Y109494D01*
X31061Y109632D01*
X31156Y109695D01*
X32339D01*
Y94568D01*
X25251D01*
X24465Y95355D01*
Y112285D01*
X28341D01*
X28660Y111785D01*
D02*
G37*
G36*
X91394Y112285D02*
X105173D01*
Y92600D01*
X88441D01*
Y103427D01*
X83520D01*
Y122127D01*
X91394D01*
Y112285D01*
D02*
G37*
G36*
X59898Y102442D02*
X79583D01*
Y83741D01*
X64819D01*
Y94568D01*
X53008D01*
Y112285D01*
X59898D01*
Y102442D01*
D02*
G37*
G36*
X27676Y93084D02*
X27580Y92600D01*
X27717Y91909D01*
X28109Y91322D01*
X28695Y90931D01*
X29386Y90793D01*
X30077Y90931D01*
X30172Y90994D01*
X33421D01*
X33421Y90994D01*
X34036Y91116D01*
X34557Y91464D01*
X35835Y92743D01*
X36276Y92476D01*
Y74883D01*
X24767D01*
X24465Y75186D01*
Y85408D01*
X25044Y85988D01*
X25156Y86010D01*
X25742Y86401D01*
X26133Y86987D01*
X26271Y87678D01*
X26133Y88370D01*
X25742Y88956D01*
X25156Y89347D01*
X24465Y89485D01*
Y93584D01*
X27357D01*
X27676Y93084D01*
D02*
G37*
G36*
X87457Y91615D02*
X105173D01*
Y74883D01*
X104189Y73899D01*
X92378D01*
Y83741D01*
X80567D01*
Y102442D01*
X87457D01*
Y91615D01*
D02*
G37*
G36*
X63835Y93230D02*
X63835Y82757D01*
X82535Y82757D01*
Y64056D01*
X60882D01*
Y74883D01*
X56945D01*
Y93584D01*
X63481D01*
X63835Y93230D01*
D02*
G37*
G36*
X48382Y69667D02*
Y56478D01*
X48006Y56102D01*
X33323D01*
Y73899D01*
X44150Y73899D01*
X48382Y69667D01*
D02*
G37*
G36*
X32339Y56102D02*
X24465D01*
Y73899D01*
X32339D01*
Y56102D01*
D02*
G37*
G36*
X91394Y82757D02*
Y72915D01*
X104189Y72915D01*
X105173Y71930D01*
Y54214D01*
X104189Y53230D01*
X88441D01*
Y65041D01*
X83520D01*
X83520Y82404D01*
X83873Y82757D01*
X91394Y82757D01*
D02*
G37*
G36*
X59898Y63072D02*
X79583D01*
Y44371D01*
X64819D01*
Y54214D01*
X56945D01*
X53008Y58151D01*
X53008Y73545D01*
X53361Y73899D01*
X59898D01*
Y63072D01*
D02*
G37*
G36*
X46118Y55749D02*
X46118Y31576D01*
X53008Y24686D01*
X78598Y24686D01*
Y43387D01*
X91394D01*
Y17797D01*
Y16838D01*
X87525Y14605D01*
X87100Y15300D01*
X85781Y16844D01*
X84237Y18163D01*
X82505Y19224D01*
X80629Y20001D01*
X78654Y20475D01*
X76630Y20634D01*
X74605Y20475D01*
X72631Y20001D01*
X70755Y19224D01*
X69023Y18163D01*
X67479Y16844D01*
X66160Y15300D01*
X65099Y13568D01*
X64322Y11692D01*
X64093Y10740D01*
X47270D01*
X37402Y20607D01*
X37402Y27077D01*
X37777Y27407D01*
X38386Y27327D01*
X39465Y27469D01*
X40471Y27885D01*
X41334Y28548D01*
X41997Y29411D01*
X42413Y30417D01*
X42555Y31496D01*
X42413Y32575D01*
X41997Y33581D01*
X41334Y34444D01*
X40926Y34757D01*
X40879Y35117D01*
X40621Y35739D01*
X40211Y36274D01*
X37402Y39083D01*
X37402Y43679D01*
X38386D01*
X39054Y43767D01*
X39676Y44025D01*
X40211Y44435D01*
X40621Y44969D01*
X40879Y45592D01*
X40967Y46260D01*
X40879Y46928D01*
X40621Y47550D01*
X40211Y48085D01*
X39676Y48495D01*
X39054Y48753D01*
X38386Y48841D01*
X37402D01*
X37402Y56102D01*
X45765Y56102D01*
X46118Y55749D01*
D02*
G37*
G36*
X55961Y93584D02*
X55961Y74883D01*
X53008D01*
X52024Y73899D01*
Y58151D01*
X55961Y54214D01*
Y37482D01*
X59898Y33545D01*
Y25671D01*
X53008D01*
X47102Y31576D01*
X47102Y54214D01*
X49071Y56182D01*
Y69962D01*
X44150Y74883D01*
X37260D01*
Y93584D01*
X55961Y93584D01*
D02*
G37*
G36*
X63835Y43387D02*
X77261Y43387D01*
X77614Y43034D01*
Y26655D01*
X76630Y25671D01*
X61235Y25670D01*
X60882Y26024D01*
Y33544D01*
X56945Y37481D01*
Y53229D01*
X63834D01*
X63835Y43387D01*
D02*
G37*
G36*
X87457Y52245D02*
X104189D01*
X105173Y51261D01*
Y28810D01*
X104979Y28002D01*
X104308Y26381D01*
X103391Y24885D01*
X102252Y23551D01*
X100918Y22412D01*
X99921Y21801D01*
X99938Y21772D01*
X92811Y17657D01*
X92378Y17907D01*
Y44372D01*
X80567D01*
Y45356D01*
Y63072D01*
X87457D01*
Y52245D01*
D02*
G37*
%LPC*%
G36*
X31008Y175099D02*
X23827D01*
Y174914D01*
X15828D01*
X15828Y174914D01*
X15214Y174792D01*
X14693Y174444D01*
X12644Y172395D01*
X12296Y171874D01*
X12174Y171260D01*
X11869Y170579D01*
X11417D01*
Y166642D01*
X16142D01*
Y170579D01*
X16142D01*
X16152Y171362D01*
X16493Y171703D01*
X23827D01*
Y171518D01*
X31008D01*
Y175099D01*
D02*
G37*
G36*
X15067Y73228D02*
X11130D01*
Y68504D01*
X11987D01*
Y67520D01*
X10146D01*
Y62402D01*
X11845D01*
Y61497D01*
X10988D01*
Y56773D01*
X14925D01*
Y61497D01*
X14069D01*
Y62402D01*
X15264D01*
Y63849D01*
X16272D01*
X16605Y63516D01*
Y60443D01*
X16439Y60332D01*
X16048Y59746D01*
X15910Y59055D01*
X16048Y58364D01*
X16439Y57778D01*
X17025Y57386D01*
X17717Y57249D01*
X18408Y57386D01*
X18994Y57778D01*
X19385Y58364D01*
X19523Y59055D01*
X19385Y59746D01*
X18994Y60332D01*
X18828Y60443D01*
Y63976D01*
X18828Y63976D01*
X18744Y64402D01*
X18503Y64763D01*
X17518Y65747D01*
X17158Y65988D01*
X16732Y66073D01*
X16732Y66073D01*
X15264D01*
Y67520D01*
X14210D01*
Y68504D01*
X15067D01*
Y73228D01*
D02*
G37*
G36*
X8413Y61497D02*
X4476D01*
Y56773D01*
X5333D01*
Y55563D01*
X5333Y55563D01*
X5418Y55137D01*
X5659Y54777D01*
X7088Y53348D01*
X7448Y53107D01*
X7874Y53022D01*
X20438D01*
X20485Y52953D01*
X20064Y52165D01*
X14370D01*
Y48841D01*
X8858D01*
X8190Y48753D01*
X7568Y48495D01*
X7033Y48085D01*
X6623Y47550D01*
X6365Y46928D01*
X6277Y46260D01*
X6365Y45592D01*
X6623Y44969D01*
X7033Y44435D01*
X7568Y44025D01*
X8190Y43767D01*
X8858Y43679D01*
X13324D01*
X13650Y42891D01*
X6891Y36132D01*
X6481Y35598D01*
X6223Y34975D01*
X6181Y34652D01*
X5910Y34444D01*
X5247Y33581D01*
X4831Y32575D01*
X4689Y31496D01*
X4831Y30417D01*
X5247Y29411D01*
X5910Y28548D01*
X6774Y27885D01*
X7779Y27469D01*
X8858Y27327D01*
X9937Y27469D01*
X10943Y27885D01*
X11807Y28548D01*
X12469Y29411D01*
X12886Y30417D01*
X13028Y31496D01*
X12886Y32575D01*
X12469Y33581D01*
X12109Y34050D01*
X18414Y40354D01*
X21723D01*
X21850Y40354D01*
X22510Y40046D01*
Y37100D01*
X20596Y35186D01*
X19780Y35524D01*
X18701Y35666D01*
X17622Y35524D01*
X16616Y35107D01*
X15753Y34444D01*
X15090Y33581D01*
X14673Y32575D01*
X14531Y31496D01*
X14673Y30417D01*
X15090Y29411D01*
X15753Y28548D01*
X16616Y27885D01*
X17622Y27469D01*
X18701Y27327D01*
X19780Y27469D01*
X20786Y27885D01*
X21649Y28548D01*
X22312Y29411D01*
X22728Y30417D01*
X22870Y31496D01*
X22728Y32575D01*
X22312Y33581D01*
X22235Y33680D01*
X24408Y35853D01*
X24408Y35853D01*
X24649Y36214D01*
X24734Y36639D01*
Y52165D01*
X24649Y52591D01*
X24408Y52952D01*
X24408Y52952D01*
X22440Y54920D01*
X22079Y55161D01*
X21654Y55246D01*
X21654Y55246D01*
X8335D01*
X7595Y55986D01*
X7648Y56773D01*
X8413D01*
Y61497D01*
D02*
G37*
G36*
X28543Y35666D02*
X27464Y35524D01*
X26459Y35107D01*
X25595Y34444D01*
X24932Y33581D01*
X24516Y32575D01*
X24374Y31496D01*
X24516Y30417D01*
X24932Y29411D01*
X25595Y28548D01*
X26459Y27885D01*
X27464Y27469D01*
X28543Y27327D01*
X29623Y27469D01*
X30628Y27885D01*
X31492Y28548D01*
X32154Y29411D01*
X32571Y30417D01*
X32713Y31496D01*
X32571Y32575D01*
X32154Y33581D01*
X31492Y34444D01*
X30628Y35107D01*
X29623Y35524D01*
X28543Y35666D01*
D02*
G37*
%LPD*%
D10*
X87949Y157560D02*
D03*
X84012Y137875D02*
D03*
X87949Y118190D02*
D03*
X84012Y98505D02*
D03*
X87949Y78820D02*
D03*
X84012Y59135D02*
D03*
X87949Y39450D02*
D03*
X28894Y59135D02*
D03*
Y98505D02*
D03*
Y137875D02*
D03*
X60390Y167403D02*
D03*
X56453Y147718D02*
D03*
X60390Y128033D02*
D03*
X56453Y108348D02*
D03*
X60390Y88663D02*
D03*
X56453Y68978D02*
D03*
X60390Y49293D02*
D03*
X56453Y29608D02*
D03*
X32831Y78820D02*
D03*
Y118190D02*
D03*
D11*
X98382Y157560D02*
D03*
X94445Y137875D02*
D03*
X98382Y118190D02*
D03*
X94445Y98505D02*
D03*
X98382Y78820D02*
D03*
X94445Y59135D02*
D03*
X98382Y39450D02*
D03*
X39327Y59135D02*
D03*
Y98505D02*
D03*
Y137875D02*
D03*
X70823Y167403D02*
D03*
X66886Y147718D02*
D03*
X70823Y128033D02*
D03*
X66886Y108348D02*
D03*
X70823Y88663D02*
D03*
X66886Y68978D02*
D03*
X70823Y49293D02*
D03*
X66886Y29608D02*
D03*
X43264Y78820D02*
D03*
Y118190D02*
D03*
D12*
X12705Y64961D02*
D03*
X6980D02*
D03*
D13*
X29134Y46260D02*
D03*
X18110D02*
D03*
D14*
X27417Y173309D02*
D03*
D15*
Y168308D02*
D03*
Y163309D02*
D03*
Y158308D02*
D03*
X48917Y173309D02*
D03*
Y168308D02*
D03*
Y163309D02*
D03*
Y158308D02*
D03*
D16*
X13780Y162098D02*
D03*
Y168610D02*
D03*
X19685Y162098D02*
D03*
Y168610D02*
D03*
D17*
X6587Y70866D02*
D03*
X13098D02*
D03*
X6445Y59135D02*
D03*
X12957D02*
D03*
D18*
X15828Y173309D02*
X27417D01*
X13780Y171260D02*
X15828Y173309D01*
X13780Y168610D02*
Y171260D01*
X19685Y168610D02*
X20366D01*
X25668Y163309D01*
X27417D01*
X22496Y95052D02*
X27167Y90381D01*
X22496Y95052D02*
Y108348D01*
X33421Y92600D02*
X39327Y98505D01*
X29386Y92600D02*
X33421D01*
X22496Y74883D02*
X27417Y69962D01*
X22496Y74883D02*
Y85710D01*
X24465Y87678D01*
X36374Y111301D02*
X43264Y118190D01*
X30370Y111301D02*
X36374D01*
X37260Y168308D02*
X48917D01*
X27417D02*
X37260D01*
Y160513D02*
Y168308D01*
X35055Y158308D02*
X37260Y160513D01*
X27417Y158308D02*
X35055D01*
X24465Y144765D02*
X35291D01*
X22496Y142797D02*
X24465Y144765D01*
X22496Y114253D02*
Y142797D01*
Y114253D02*
X25449Y111301D01*
X25449D02*
X27417Y109332D01*
D19*
X6587Y65354D02*
X6980Y64961D01*
X6587Y65354D02*
Y70866D01*
X12705Y64961D02*
X13098Y65354D01*
Y70866D01*
X12705Y64961D02*
X12957Y64709D01*
Y59135D02*
Y64709D01*
X17717Y59055D02*
Y63976D01*
X16732Y64961D02*
X17717Y63976D01*
X12705Y64961D02*
X16732D01*
X6445Y55563D02*
Y59135D01*
Y55563D02*
X7874Y54134D01*
X21654D01*
X23622Y52165D01*
Y36639D02*
Y52165D01*
X18559Y31576D02*
X23622Y36639D01*
X27417Y99982D02*
Y100474D01*
Y99982D02*
X28894Y98505D01*
X25449Y111301D02*
X25449D01*
D20*
X29134Y46260D02*
X38386D01*
X29134Y43701D02*
Y46260D01*
Y43701D02*
X38386Y34449D01*
X38244Y34307D02*
X38386Y34449D01*
X38244Y31576D02*
Y34307D01*
X8858Y46260D02*
X18110D01*
Y43701D02*
Y46260D01*
X8716Y34307D02*
X18110Y43701D01*
X8716Y31576D02*
Y34307D01*
D21*
X8858Y31496D02*
D03*
X18701D02*
D03*
X28543D02*
D03*
X38386D02*
D03*
D22*
X21654Y62992D02*
D03*
X19685Y68898D02*
D03*
X47244Y187008D02*
D03*
X59055D02*
D03*
X18701Y137795D02*
D03*
Y129921D02*
D03*
Y118110D02*
D03*
Y106299D02*
D03*
Y94488D02*
D03*
Y80709D02*
D03*
X27559Y21654D02*
D03*
X59055Y3937D02*
D03*
X47244D02*
D03*
X35433Y9843D02*
D03*
X21654Y15748D02*
D03*
X9843Y23622D02*
D03*
X3937Y41339D02*
D03*
Y68898D02*
D03*
Y80709D02*
D03*
Y94488D02*
D03*
Y106299D02*
D03*
Y118110D02*
D03*
Y129921D02*
D03*
Y141732D02*
D03*
Y155512D02*
D03*
X5906Y171260D02*
D03*
X17717Y179134D02*
D03*
X31496Y187008D02*
D03*
X47244Y192913D02*
D03*
X59055D02*
D03*
X19685Y155512D02*
D03*
X15748D02*
D03*
X66787Y165434D02*
D03*
Y169371D02*
D03*
X70724D02*
D03*
Y165434D02*
D03*
X74661D02*
D03*
Y169371D02*
D03*
X61866Y165434D02*
D03*
Y169371D02*
D03*
X58913Y169371D02*
D03*
Y165434D02*
D03*
X70724Y173309D02*
D03*
X66787D02*
D03*
X54976Y16812D02*
D03*
X51039D02*
D03*
Y20749D02*
D03*
X54976D02*
D03*
Y12875D02*
D03*
X51039D02*
D03*
X81551Y37482D02*
D03*
Y41419D02*
D03*
X89425D02*
D03*
X85488D02*
D03*
Y37482D02*
D03*
X89425D02*
D03*
X34307Y76852D02*
D03*
Y80789D02*
D03*
X31354D02*
D03*
Y76852D02*
D03*
X47102Y88663D02*
D03*
X43165D02*
D03*
X39228D02*
D03*
X47102Y84726D02*
D03*
X39228D02*
D03*
X43165D02*
D03*
X47102Y80789D02*
D03*
Y76852D02*
D03*
X43165D02*
D03*
Y80789D02*
D03*
X39228D02*
D03*
Y76852D02*
D03*
X34307Y116222D02*
D03*
Y120159D02*
D03*
X31354D02*
D03*
Y116222D02*
D03*
X47102Y128033D02*
D03*
X43165D02*
D03*
X39228D02*
D03*
X47102Y124096D02*
D03*
X39228D02*
D03*
X43165D02*
D03*
X47102Y120159D02*
D03*
Y116222D02*
D03*
X43165D02*
D03*
Y120159D02*
D03*
X39228D02*
D03*
Y116222D02*
D03*
X43165Y61104D02*
D03*
X39228D02*
D03*
X35291D02*
D03*
Y65041D02*
D03*
X39228D02*
D03*
X43165D02*
D03*
X35291Y68978D02*
D03*
X39228D02*
D03*
X43165D02*
D03*
X47102D02*
D03*
Y65041D02*
D03*
Y61104D02*
D03*
X27417D02*
D03*
X30370D02*
D03*
X35291Y96537D02*
D03*
X39228D02*
D03*
X43165D02*
D03*
Y100474D02*
D03*
X39228D02*
D03*
X35291D02*
D03*
Y104411D02*
D03*
X39228D02*
D03*
X43165D02*
D03*
X35291Y108348D02*
D03*
X39228D02*
D03*
X43165D02*
D03*
X47102D02*
D03*
Y104411D02*
D03*
Y100474D02*
D03*
Y96537D02*
D03*
X27417Y100474D02*
D03*
X30370D02*
D03*
X27417Y96537D02*
D03*
X30370D02*
D03*
X35291Y135907D02*
D03*
X39228D02*
D03*
X43165D02*
D03*
Y139844D02*
D03*
X39228D02*
D03*
X35291D02*
D03*
Y143781D02*
D03*
X39228D02*
D03*
X43165D02*
D03*
X35291Y147718D02*
D03*
X39228D02*
D03*
X43165D02*
D03*
X47102D02*
D03*
Y143781D02*
D03*
Y139844D02*
D03*
Y135907D02*
D03*
X27417Y139844D02*
D03*
X30370D02*
D03*
X27417Y135907D02*
D03*
X30370D02*
D03*
X89425Y155592D02*
D03*
X86472D02*
D03*
X89425Y159529D02*
D03*
X86472D02*
D03*
X85488Y135907D02*
D03*
X82535D02*
D03*
X85488Y139844D02*
D03*
X82535D02*
D03*
X89425Y116222D02*
D03*
X86472D02*
D03*
X89425Y120159D02*
D03*
X86472D02*
D03*
X85488Y96537D02*
D03*
X82535D02*
D03*
X85488Y100474D02*
D03*
X82535D02*
D03*
X89425Y76852D02*
D03*
X86472D02*
D03*
X89425Y80789D02*
D03*
X86472D02*
D03*
X85488Y57167D02*
D03*
X82535D02*
D03*
X85488Y61104D02*
D03*
X82535D02*
D03*
X57929Y27639D02*
D03*
Y31576D02*
D03*
X57929Y67009D02*
D03*
Y70946D02*
D03*
X57929Y106379D02*
D03*
Y110316D02*
D03*
X57929Y145749D02*
D03*
Y149686D02*
D03*
X102220Y135907D02*
D03*
Y139844D02*
D03*
Y143781D02*
D03*
Y147718D02*
D03*
X98283D02*
D03*
X94346D02*
D03*
X90409D02*
D03*
X98283Y143781D02*
D03*
X94346D02*
D03*
X90409D02*
D03*
Y139844D02*
D03*
X94346D02*
D03*
X98283D02*
D03*
Y135907D02*
D03*
X94346D02*
D03*
X90409D02*
D03*
X102220Y167403D02*
D03*
X98283D02*
D03*
X94346D02*
D03*
X102220Y163466D02*
D03*
X94346D02*
D03*
X98283D02*
D03*
X102220Y159529D02*
D03*
Y155592D02*
D03*
X98283D02*
D03*
Y159529D02*
D03*
X94346D02*
D03*
Y155592D02*
D03*
X102220Y96537D02*
D03*
Y100474D02*
D03*
Y104411D02*
D03*
Y108348D02*
D03*
X98283D02*
D03*
X94346D02*
D03*
X90409D02*
D03*
X98283Y104411D02*
D03*
X94346D02*
D03*
X90409D02*
D03*
Y100474D02*
D03*
X94346D02*
D03*
X98283D02*
D03*
Y96537D02*
D03*
X94346D02*
D03*
X90409D02*
D03*
X102220Y128033D02*
D03*
X98283D02*
D03*
X94346D02*
D03*
X102220Y124096D02*
D03*
X94346D02*
D03*
X98283D02*
D03*
X102220Y120159D02*
D03*
Y116222D02*
D03*
X98283D02*
D03*
Y120159D02*
D03*
X94346D02*
D03*
Y116222D02*
D03*
Y76852D02*
D03*
Y80789D02*
D03*
X98283D02*
D03*
Y76852D02*
D03*
X102220D02*
D03*
Y80789D02*
D03*
X98283Y84726D02*
D03*
X94346D02*
D03*
X102220D02*
D03*
X94346Y88663D02*
D03*
X98283D02*
D03*
X102220D02*
D03*
X90409Y57167D02*
D03*
X94346D02*
D03*
X98283D02*
D03*
Y61104D02*
D03*
X94346D02*
D03*
X90409D02*
D03*
Y65041D02*
D03*
X94346D02*
D03*
X98283D02*
D03*
X90409Y68978D02*
D03*
X94346D02*
D03*
X98283D02*
D03*
X102220D02*
D03*
Y65041D02*
D03*
Y61104D02*
D03*
Y57167D02*
D03*
Y49293D02*
D03*
X98283D02*
D03*
X94346D02*
D03*
X102220Y45356D02*
D03*
X94346D02*
D03*
X98283D02*
D03*
X102220Y41419D02*
D03*
Y37482D02*
D03*
X98283D02*
D03*
Y41419D02*
D03*
X94346D02*
D03*
Y37482D02*
D03*
X58913Y51261D02*
D03*
X62850Y27639D02*
D03*
X66787D02*
D03*
X70724D02*
D03*
Y31576D02*
D03*
X66787D02*
D03*
X62850D02*
D03*
Y35513D02*
D03*
X66787D02*
D03*
X70724D02*
D03*
X62850Y39450D02*
D03*
X66787D02*
D03*
X61866Y51261D02*
D03*
Y47324D02*
D03*
X58913D02*
D03*
X74661Y31576D02*
D03*
Y27639D02*
D03*
X54976D02*
D03*
Y31576D02*
D03*
Y67009D02*
D03*
Y70946D02*
D03*
Y145749D02*
D03*
Y149686D02*
D03*
X70724Y157560D02*
D03*
X66787D02*
D03*
X62850D02*
D03*
X70724Y153623D02*
D03*
X66787D02*
D03*
X62850D02*
D03*
Y149686D02*
D03*
X66787D02*
D03*
X70724D02*
D03*
Y145749D02*
D03*
X66787D02*
D03*
X62850D02*
D03*
X74661D02*
D03*
Y149686D02*
D03*
Y153623D02*
D03*
Y157560D02*
D03*
X66787Y126064D02*
D03*
Y130001D02*
D03*
X70724D02*
D03*
Y126064D02*
D03*
X74661D02*
D03*
Y130001D02*
D03*
X70724Y133938D02*
D03*
X66787D02*
D03*
X74661D02*
D03*
X66787Y137875D02*
D03*
X70724D02*
D03*
X74661D02*
D03*
Y118190D02*
D03*
Y114253D02*
D03*
Y110316D02*
D03*
Y106379D02*
D03*
X66787Y47324D02*
D03*
Y51261D02*
D03*
X70724D02*
D03*
Y47324D02*
D03*
X74661D02*
D03*
Y51261D02*
D03*
X70724Y55198D02*
D03*
X66787D02*
D03*
X74661D02*
D03*
X66787Y59135D02*
D03*
X70724D02*
D03*
X74661D02*
D03*
Y67009D02*
D03*
Y70946D02*
D03*
Y74883D02*
D03*
Y78820D02*
D03*
X54976Y110316D02*
D03*
Y106379D02*
D03*
X74661Y98505D02*
D03*
X70724D02*
D03*
X66787D02*
D03*
X74661Y94568D02*
D03*
X66787D02*
D03*
X70724D02*
D03*
X74661Y90631D02*
D03*
Y86694D02*
D03*
X70724D02*
D03*
Y90631D02*
D03*
X66787D02*
D03*
Y86694D02*
D03*
X62850Y106379D02*
D03*
X66787D02*
D03*
X70724D02*
D03*
Y110316D02*
D03*
X66787D02*
D03*
X62850D02*
D03*
Y114253D02*
D03*
X66787D02*
D03*
X70724D02*
D03*
X58913Y126064D02*
D03*
Y130001D02*
D03*
X61866D02*
D03*
Y126064D02*
D03*
X62850Y118190D02*
D03*
X66787D02*
D03*
X70724D02*
D03*
Y78820D02*
D03*
X66787D02*
D03*
X62850D02*
D03*
X61866Y86694D02*
D03*
Y90631D02*
D03*
X58913D02*
D03*
Y86694D02*
D03*
X70724Y74883D02*
D03*
X66787D02*
D03*
X62850D02*
D03*
Y70946D02*
D03*
X66787D02*
D03*
X70724D02*
D03*
Y67009D02*
D03*
X66787D02*
D03*
X62850D02*
D03*
X17717Y59055D02*
D03*
X29386Y92600D02*
D03*
X24465Y87678D02*
D03*
X22496Y108348D02*
D03*
X30370Y111301D02*
D03*
D23*
X38386Y46260D02*
D03*
X8858D02*
D03*
M02*
