G04 Layer_Color=32896*
%FSLAX25Y25*%
%MOIN*%
G70*
G01*
G75*
%ADD19C,0.01000*%
%ADD25C,0.00787*%
G36*
X82452Y163053D02*
X82737Y163023D01*
X83003Y162974D01*
X83249Y162925D01*
X83485Y162866D01*
X83692Y162797D01*
X83888Y162728D01*
X84056Y162659D01*
X84213Y162591D01*
X84351Y162512D01*
X84459Y162453D01*
X84557Y162394D01*
X84626Y162345D01*
X84685Y162305D01*
X84715Y162285D01*
X84725Y162276D01*
X84882Y162128D01*
X85020Y161971D01*
X85148Y161803D01*
X85246Y161636D01*
X85335Y161459D01*
X85413Y161282D01*
X85473Y161115D01*
X85512Y160957D01*
X85551Y160800D01*
X85581Y160652D01*
X85600Y160524D01*
X85620Y160416D01*
Y160327D01*
X85630Y160258D01*
Y160209D01*
Y160199D01*
X85620Y159953D01*
X85591Y159717D01*
X85541Y159501D01*
X85482Y159294D01*
X85413Y159107D01*
X85335Y158940D01*
X85246Y158782D01*
X85158Y158645D01*
X85079Y158517D01*
X84990Y158408D01*
X84912Y158320D01*
X84843Y158241D01*
X84784Y158182D01*
X84734Y158133D01*
X84705Y158113D01*
X84695Y158104D01*
X84508Y157976D01*
X84311Y157858D01*
X84105Y157759D01*
X83878Y157671D01*
X83662Y157602D01*
X83436Y157543D01*
X83219Y157484D01*
X83003Y157444D01*
X82806Y157415D01*
X82619Y157395D01*
X82452Y157375D01*
X82304Y157366D01*
X82186Y157356D01*
X80474D01*
X80159Y157366D01*
X79864Y157395D01*
X79598Y157434D01*
X79342Y157484D01*
X79106Y157543D01*
X78890Y157612D01*
X78693Y157680D01*
X78516Y157749D01*
X78358Y157818D01*
X78220Y157887D01*
X78102Y157946D01*
X78004Y158005D01*
X77935Y158054D01*
X77876Y158094D01*
X77846Y158113D01*
X77837Y158123D01*
X77669Y158271D01*
X77532Y158428D01*
X77404Y158596D01*
X77305Y158763D01*
X77217Y158940D01*
X77138Y159117D01*
X77079Y159284D01*
X77030Y159452D01*
X76990Y159609D01*
X76961Y159757D01*
X76941Y159885D01*
X76921Y159993D01*
Y160091D01*
X76912Y160160D01*
Y160199D01*
Y160219D01*
X76921Y160465D01*
X76951Y160691D01*
X77000Y160908D01*
X77059Y161115D01*
X77138Y161302D01*
X77217Y161469D01*
X77305Y161626D01*
X77394Y161764D01*
X77492Y161892D01*
X77581Y162000D01*
X77659Y162099D01*
X77728Y162177D01*
X77797Y162236D01*
X77846Y162276D01*
X77876Y162305D01*
X77886Y162315D01*
X78073Y162443D01*
X78280Y162561D01*
X78486Y162659D01*
X78703Y162748D01*
X78929Y162817D01*
X79145Y162876D01*
X79362Y162925D01*
X79578Y162964D01*
X79775Y163004D01*
X79952Y163023D01*
X80120Y163043D01*
X80267Y163053D01*
X80375D01*
X80464Y163063D01*
X82147D01*
X82452Y163053D01*
D02*
G37*
G36*
X85512Y153744D02*
Y152810D01*
X77030Y150172D01*
Y151343D01*
X83878Y153282D01*
X77030Y155210D01*
Y156381D01*
X85512Y153744D01*
D02*
G37*
G36*
X70493Y170266D02*
X70798Y170246D01*
X71074Y170207D01*
X71339Y170158D01*
X71575Y170098D01*
X71802Y170030D01*
X71999Y169961D01*
X72185Y169892D01*
X72343Y169823D01*
X72481Y169754D01*
X72599Y169685D01*
X72697Y169626D01*
X72776Y169577D01*
X72825Y169538D01*
X72864Y169518D01*
X72874Y169508D01*
X73041Y169360D01*
X73189Y169193D01*
X73307Y169016D01*
X73415Y168839D01*
X73514Y168652D01*
X73593Y168475D01*
X73652Y168288D01*
X73701Y168121D01*
X73740Y167953D01*
X73770Y167796D01*
X73789Y167658D01*
X73799Y167540D01*
X73809Y167442D01*
X73819Y167363D01*
Y167324D01*
Y167304D01*
X73809Y167058D01*
X73789Y166822D01*
X73750Y166605D01*
X73701Y166399D01*
X73642Y166212D01*
X73583Y166034D01*
X73514Y165877D01*
X73445Y165729D01*
X73376Y165611D01*
X73307Y165493D01*
X73248Y165405D01*
X73189Y165326D01*
X73140Y165267D01*
X73101Y165228D01*
X73081Y165198D01*
X73071Y165188D01*
X72923Y165050D01*
X72766Y164933D01*
X72589Y164834D01*
X72412Y164736D01*
X72235Y164657D01*
X72048Y164598D01*
X71871Y164539D01*
X71693Y164490D01*
X71526Y164450D01*
X71369Y164421D01*
X71231Y164401D01*
X71113Y164381D01*
X71014Y164372D01*
X70936Y164362D01*
X70877D01*
Y166084D01*
X71034Y166094D01*
X71172Y166103D01*
X71310Y166123D01*
X71428Y166143D01*
X71536Y166163D01*
X71634Y166182D01*
X71723Y166212D01*
X71792Y166241D01*
X71861Y166261D01*
X71920Y166290D01*
X71999Y166330D01*
X72048Y166359D01*
X72067Y166369D01*
X72126Y166418D01*
X72176Y166487D01*
X72254Y166625D01*
X72313Y166773D01*
X72353Y166930D01*
X72372Y167078D01*
X72382Y167196D01*
X72392Y167235D01*
Y167274D01*
Y167294D01*
Y167304D01*
X72382Y167432D01*
X72372Y167540D01*
X72323Y167747D01*
X72245Y167914D01*
X72156Y168052D01*
X72077Y168150D01*
X71999Y168219D01*
X71949Y168268D01*
X71930Y168278D01*
X71831Y168327D01*
X71723Y168367D01*
X71595Y168406D01*
X71457Y168436D01*
X71172Y168485D01*
X70877Y168514D01*
X70739Y168534D01*
X70611D01*
X70493Y168544D01*
X70395Y168554D01*
X68594D01*
X68397Y168544D01*
X68210Y168534D01*
X68043Y168524D01*
X67885Y168504D01*
X67738Y168485D01*
X67610Y168455D01*
X67492Y168426D01*
X67383Y168406D01*
X67295Y168377D01*
X67216Y168347D01*
X67157Y168327D01*
X67098Y168308D01*
X67059Y168288D01*
X67029Y168268D01*
X67019Y168258D01*
X67010D01*
X66921Y168199D01*
X66852Y168131D01*
X66783Y168062D01*
X66734Y167983D01*
X66645Y167825D01*
X66587Y167668D01*
X66557Y167520D01*
X66537Y167393D01*
X66527Y167353D01*
Y167314D01*
Y167294D01*
Y167284D01*
Y167166D01*
X66537Y167048D01*
X66577Y166851D01*
X66636Y166694D01*
X66695Y166566D01*
X66764Y166467D01*
X66813Y166399D01*
X66852Y166359D01*
X66872Y166349D01*
X66941Y166300D01*
X67019Y166261D01*
X67206Y166202D01*
X67413Y166153D01*
X67620Y166113D01*
X67807Y166094D01*
X67895Y166084D01*
X67964D01*
X68023Y166074D01*
X68112D01*
Y164352D01*
X67846Y164381D01*
X67600Y164411D01*
X67374Y164460D01*
X67157Y164519D01*
X66951Y164588D01*
X66773Y164657D01*
X66606Y164726D01*
X66459Y164804D01*
X66321Y164873D01*
X66213Y164942D01*
X66114Y165011D01*
X66035Y165060D01*
X65967Y165110D01*
X65927Y165149D01*
X65898Y165169D01*
X65888Y165179D01*
X65750Y165316D01*
X65632Y165474D01*
X65524Y165641D01*
X65435Y165808D01*
X65356Y165985D01*
X65288Y166163D01*
X65238Y166330D01*
X65199Y166497D01*
X65170Y166664D01*
X65140Y166812D01*
X65120Y166940D01*
X65110Y167058D01*
X65101Y167147D01*
Y167225D01*
Y167265D01*
Y167284D01*
X65110Y167540D01*
X65140Y167786D01*
X65189Y168012D01*
X65248Y168219D01*
X65317Y168416D01*
X65406Y168603D01*
X65484Y168760D01*
X65573Y168918D01*
X65671Y169046D01*
X65750Y169164D01*
X65829Y169262D01*
X65908Y169341D01*
X65967Y169410D01*
X66016Y169449D01*
X66045Y169478D01*
X66055Y169488D01*
X66242Y169626D01*
X66439Y169744D01*
X66655Y169852D01*
X66872Y169941D01*
X67098Y170020D01*
X67325Y170079D01*
X67541Y170138D01*
X67757Y170177D01*
X67964Y170207D01*
X68151Y170236D01*
X68318Y170256D01*
X68466Y170266D01*
X68584D01*
X68673Y170276D01*
X70178D01*
X70493Y170266D01*
D02*
G37*
G36*
X78398Y126128D02*
X85512Y128824D01*
Y127082D01*
X77984Y124396D01*
X77030D01*
Y129532D01*
X78398D01*
Y126128D01*
D02*
G37*
G36*
X85512Y169203D02*
X78978D01*
X85512Y165798D01*
Y164726D01*
X77030D01*
Y165789D01*
X83603D01*
X77030Y169203D01*
Y170276D01*
X85512D01*
Y169203D01*
D02*
G37*
G36*
X73701Y120731D02*
X68141D01*
X73701Y118222D01*
Y116510D01*
X65219D01*
Y118222D01*
X70788D01*
X65219Y120731D01*
Y122443D01*
X73701D01*
Y120731D01*
D02*
G37*
G36*
Y161518D02*
X65219D01*
Y163230D01*
X73701D01*
Y161518D01*
D02*
G37*
G36*
Y145400D02*
X71969Y144947D01*
Y142615D01*
X73701Y142163D01*
Y140332D01*
X65219Y142999D01*
Y144564D01*
X73701Y147221D01*
Y145400D01*
D02*
G37*
G36*
Y131004D02*
X65219D01*
Y132716D01*
X73701D01*
Y131004D01*
D02*
G37*
G36*
Y137341D02*
X73691Y137056D01*
X73662Y136790D01*
X73612Y136544D01*
X73553Y136308D01*
X73484Y136091D01*
X73406Y135885D01*
X73317Y135708D01*
X73229Y135540D01*
X73140Y135393D01*
X73051Y135265D01*
X72973Y135157D01*
X72904Y135068D01*
X72845Y134999D01*
X72795Y134950D01*
X72766Y134921D01*
X72756Y134911D01*
X72569Y134753D01*
X72372Y134615D01*
X72156Y134497D01*
X71939Y134399D01*
X71723Y134310D01*
X71507Y134241D01*
X71290Y134183D01*
X71083Y134133D01*
X70887Y134104D01*
X70710Y134074D01*
X70542Y134055D01*
X70404Y134035D01*
X70286D01*
X70198Y134025D01*
X68751D01*
X68446Y134035D01*
X68171Y134064D01*
X67905Y134114D01*
X67649Y134173D01*
X67423Y134241D01*
X67206Y134320D01*
X67019Y134399D01*
X66842Y134487D01*
X66685Y134566D01*
X66547Y134645D01*
X66429Y134724D01*
X66341Y134793D01*
X66262Y134852D01*
X66203Y134891D01*
X66173Y134921D01*
X66163Y134930D01*
X65996Y135098D01*
X65848Y135284D01*
X65721Y135471D01*
X65612Y135668D01*
X65524Y135865D01*
X65445Y136062D01*
X65386Y136259D01*
X65337Y136436D01*
X65298Y136613D01*
X65268Y136770D01*
X65248Y136918D01*
X65229Y137046D01*
Y137144D01*
X65219Y137223D01*
Y137272D01*
Y137292D01*
Y139535D01*
X73701D01*
Y137341D01*
D02*
G37*
G36*
Y128308D02*
X71969Y127855D01*
Y125523D01*
X73701Y125071D01*
Y123240D01*
X65219Y125907D01*
Y127472D01*
X73701Y130128D01*
Y128308D01*
D02*
G37*
G36*
Y158359D02*
X70601D01*
Y157513D01*
X73701Y156234D01*
Y154394D01*
X73622D01*
X70149Y155880D01*
X70011Y155663D01*
X69853Y155476D01*
X69686Y155309D01*
X69499Y155171D01*
X69302Y155053D01*
X69105Y154945D01*
X68909Y154866D01*
X68712Y154807D01*
X68535Y154748D01*
X68358Y154719D01*
X68200Y154689D01*
X68063Y154669D01*
X67944Y154659D01*
X67856Y154650D01*
X67787D01*
X67561Y154659D01*
X67354Y154679D01*
X67157Y154719D01*
X66970Y154758D01*
X66803Y154817D01*
X66645Y154876D01*
X66508Y154935D01*
X66380Y155004D01*
X66262Y155073D01*
X66163Y155132D01*
X66085Y155191D01*
X66016Y155250D01*
X65957Y155289D01*
X65917Y155329D01*
X65898Y155348D01*
X65888Y155358D01*
X65770Y155496D01*
X65671Y155643D01*
X65573Y155801D01*
X65504Y155958D01*
X65435Y156126D01*
X65386Y156293D01*
X65298Y156618D01*
X65278Y156765D01*
X65258Y156903D01*
X65238Y157021D01*
X65229Y157129D01*
X65219Y157218D01*
Y157287D01*
Y157326D01*
Y157346D01*
Y160072D01*
X73701D01*
Y158359D01*
D02*
G37*
G36*
X70493Y153616D02*
X70798Y153597D01*
X71074Y153557D01*
X71339Y153508D01*
X71575Y153449D01*
X71802Y153380D01*
X71999Y153311D01*
X72185Y153243D01*
X72343Y153174D01*
X72481Y153105D01*
X72599Y153036D01*
X72697Y152977D01*
X72776Y152928D01*
X72825Y152888D01*
X72864Y152869D01*
X72874Y152859D01*
X73041Y152711D01*
X73189Y152544D01*
X73307Y152367D01*
X73415Y152190D01*
X73514Y152003D01*
X73593Y151826D01*
X73652Y151639D01*
X73701Y151471D01*
X73740Y151304D01*
X73770Y151147D01*
X73789Y151009D01*
X73799Y150891D01*
X73809Y150792D01*
X73819Y150714D01*
Y150674D01*
Y150655D01*
X73809Y150409D01*
X73789Y150172D01*
X73750Y149956D01*
X73701Y149749D01*
X73642Y149562D01*
X73583Y149385D01*
X73514Y149228D01*
X73445Y149080D01*
X73376Y148962D01*
X73307Y148844D01*
X73248Y148756D01*
X73189Y148677D01*
X73140Y148618D01*
X73101Y148578D01*
X73081Y148549D01*
X73071Y148539D01*
X72923Y148401D01*
X72766Y148283D01*
X72589Y148185D01*
X72412Y148086D01*
X72235Y148008D01*
X72048Y147949D01*
X71871Y147890D01*
X71693Y147840D01*
X71526Y147801D01*
X71369Y147772D01*
X71231Y147752D01*
X71113Y147732D01*
X71014Y147722D01*
X70936Y147713D01*
X70877D01*
Y149434D01*
X71034Y149444D01*
X71172Y149454D01*
X71310Y149474D01*
X71428Y149494D01*
X71536Y149513D01*
X71634Y149533D01*
X71723Y149562D01*
X71792Y149592D01*
X71861Y149612D01*
X71920Y149641D01*
X71999Y149680D01*
X72048Y149710D01*
X72067Y149720D01*
X72126Y149769D01*
X72176Y149838D01*
X72254Y149976D01*
X72313Y150123D01*
X72353Y150281D01*
X72372Y150428D01*
X72382Y150546D01*
X72392Y150586D01*
Y150625D01*
Y150645D01*
Y150655D01*
X72382Y150783D01*
X72372Y150891D01*
X72323Y151097D01*
X72245Y151265D01*
X72156Y151402D01*
X72077Y151501D01*
X71999Y151570D01*
X71949Y151619D01*
X71930Y151629D01*
X71831Y151678D01*
X71723Y151717D01*
X71595Y151757D01*
X71457Y151786D01*
X71172Y151835D01*
X70877Y151865D01*
X70739Y151885D01*
X70611D01*
X70493Y151894D01*
X70395Y151904D01*
X68594D01*
X68397Y151894D01*
X68210Y151885D01*
X68043Y151875D01*
X67885Y151855D01*
X67738Y151835D01*
X67610Y151806D01*
X67492Y151776D01*
X67383Y151757D01*
X67295Y151727D01*
X67216Y151698D01*
X67157Y151678D01*
X67098Y151658D01*
X67059Y151639D01*
X67029Y151619D01*
X67019Y151609D01*
X67010D01*
X66921Y151550D01*
X66852Y151481D01*
X66783Y151412D01*
X66734Y151334D01*
X66645Y151176D01*
X66587Y151019D01*
X66557Y150871D01*
X66537Y150743D01*
X66527Y150704D01*
Y150664D01*
Y150645D01*
Y150635D01*
Y150517D01*
X66537Y150399D01*
X66577Y150202D01*
X66636Y150045D01*
X66695Y149917D01*
X66764Y149818D01*
X66813Y149749D01*
X66852Y149710D01*
X66872Y149700D01*
X66941Y149651D01*
X67019Y149612D01*
X67206Y149553D01*
X67413Y149503D01*
X67620Y149464D01*
X67807Y149444D01*
X67895Y149434D01*
X67964D01*
X68023Y149425D01*
X68112D01*
Y147703D01*
X67846Y147732D01*
X67600Y147762D01*
X67374Y147811D01*
X67157Y147870D01*
X66951Y147939D01*
X66773Y148008D01*
X66606Y148076D01*
X66459Y148155D01*
X66321Y148224D01*
X66213Y148293D01*
X66114Y148362D01*
X66035Y148411D01*
X65967Y148460D01*
X65927Y148500D01*
X65898Y148519D01*
X65888Y148529D01*
X65750Y148667D01*
X65632Y148824D01*
X65524Y148992D01*
X65435Y149159D01*
X65356Y149336D01*
X65288Y149513D01*
X65238Y149680D01*
X65199Y149848D01*
X65170Y150015D01*
X65140Y150163D01*
X65120Y150291D01*
X65110Y150409D01*
X65101Y150497D01*
Y150576D01*
Y150615D01*
Y150635D01*
X65110Y150891D01*
X65140Y151137D01*
X65189Y151363D01*
X65248Y151570D01*
X65317Y151767D01*
X65406Y151953D01*
X65484Y152111D01*
X65573Y152268D01*
X65671Y152396D01*
X65750Y152514D01*
X65829Y152613D01*
X65908Y152691D01*
X65967Y152760D01*
X66016Y152800D01*
X66045Y152829D01*
X66055Y152839D01*
X66242Y152977D01*
X66439Y153095D01*
X66655Y153203D01*
X66872Y153292D01*
X67098Y153370D01*
X67325Y153429D01*
X67541Y153489D01*
X67757Y153528D01*
X67964Y153557D01*
X68151Y153587D01*
X68318Y153607D01*
X68466Y153616D01*
X68584D01*
X68673Y153626D01*
X70178D01*
X70493Y153616D01*
D02*
G37*
G36*
X84528Y69367D02*
X83613D01*
Y72703D01*
X76046D01*
Y73775D01*
X84528D01*
Y69367D01*
D02*
G37*
G36*
Y63542D02*
X83613D01*
Y67035D01*
X80611D01*
Y64034D01*
X79696D01*
Y67035D01*
X76961D01*
Y63601D01*
X76046D01*
Y68107D01*
X84528D01*
Y63542D01*
D02*
G37*
G36*
X81369Y60511D02*
X84528D01*
Y59438D01*
X81369D01*
X76046Y57028D01*
Y58238D01*
X80306Y59970D01*
X76046Y61711D01*
Y62922D01*
X81369Y60511D01*
D02*
G37*
G36*
X84528Y93790D02*
Y92826D01*
X78348Y91359D01*
X77846Y91271D01*
X78348Y91182D01*
X84528Y89765D01*
Y88801D01*
X76046Y87118D01*
Y88181D01*
X81851Y89214D01*
X82835Y89342D01*
X81969Y89509D01*
X76046Y90828D01*
Y91714D01*
X81969Y93072D01*
X82806Y93249D01*
X81861Y93357D01*
X76046Y94410D01*
Y95472D01*
X84528Y93790D01*
D02*
G37*
G36*
Y81322D02*
X83613D01*
Y84816D01*
X80611D01*
Y81814D01*
X79696D01*
Y84816D01*
X76961D01*
Y81382D01*
X76046D01*
Y85888D01*
X84528D01*
Y81322D01*
D02*
G37*
G36*
X82353Y80358D02*
X82609Y80319D01*
X82835Y80270D01*
X83032Y80201D01*
X83121Y80171D01*
X83199Y80132D01*
X83268Y80102D01*
X83317Y80083D01*
X83367Y80053D01*
X83396Y80043D01*
X83416Y80024D01*
X83425D01*
X83632Y79876D01*
X83809Y79719D01*
X83967Y79551D01*
X84095Y79394D01*
X84193Y79256D01*
X84272Y79138D01*
X84301Y79099D01*
X84311Y79069D01*
X84331Y79049D01*
Y79040D01*
X84439Y78803D01*
X84508Y78557D01*
X84567Y78331D01*
X84606Y78115D01*
X84616Y78026D01*
X84626Y77938D01*
X84636Y77859D01*
Y77800D01*
X84646Y77741D01*
Y77701D01*
Y77682D01*
Y77672D01*
X84636Y77465D01*
X84616Y77259D01*
X84587Y77072D01*
X84547Y76904D01*
X84498Y76737D01*
X84449Y76590D01*
X84390Y76452D01*
X84331Y76334D01*
X84282Y76216D01*
X84223Y76127D01*
X84173Y76038D01*
X84124Y75970D01*
X84085Y75920D01*
X84055Y75881D01*
X84036Y75861D01*
X84026Y75852D01*
X83908Y75733D01*
X83780Y75625D01*
X83642Y75537D01*
X83504Y75458D01*
X83367Y75389D01*
X83229Y75340D01*
X83101Y75291D01*
X82973Y75261D01*
X82855Y75232D01*
X82737Y75212D01*
X82638Y75192D01*
X82550Y75182D01*
X82481Y75173D01*
X82383D01*
X82205Y75182D01*
X82028Y75192D01*
X81871Y75222D01*
X81723Y75261D01*
X81576Y75300D01*
X81448Y75340D01*
X81330Y75389D01*
X81221Y75438D01*
X81123Y75497D01*
X81044Y75546D01*
X80966Y75586D01*
X80906Y75625D01*
X80857Y75665D01*
X80828Y75694D01*
X80808Y75704D01*
X80798Y75714D01*
X80690Y75822D01*
X80582Y75950D01*
X80474Y76078D01*
X80385Y76225D01*
X80208Y76521D01*
X80060Y76816D01*
X79991Y76954D01*
X79942Y77082D01*
X79893Y77200D01*
X79844Y77298D01*
X79814Y77386D01*
X79795Y77446D01*
X79775Y77495D01*
Y77505D01*
X79716Y77652D01*
X79667Y77790D01*
X79549Y78026D01*
X79440Y78233D01*
X79342Y78400D01*
X79253Y78528D01*
X79185Y78626D01*
X79145Y78676D01*
X79125Y78695D01*
X78978Y78823D01*
X78830Y78922D01*
X78683Y78981D01*
X78545Y79030D01*
X78417Y79059D01*
X78319Y79069D01*
X78279Y79079D01*
X78230D01*
X77994Y79059D01*
X77787Y79020D01*
X77620Y78971D01*
X77472Y78902D01*
X77354Y78833D01*
X77276Y78784D01*
X77226Y78744D01*
X77207Y78725D01*
X77088Y78577D01*
X77000Y78420D01*
X76931Y78252D01*
X76892Y78085D01*
X76862Y77947D01*
X76852Y77829D01*
X76843Y77780D01*
Y77751D01*
Y77731D01*
Y77721D01*
Y77593D01*
X76862Y77475D01*
X76911Y77249D01*
X76980Y77072D01*
X77059Y76914D01*
X77138Y76796D01*
X77207Y76708D01*
X77256Y76658D01*
X77266Y76639D01*
X77276D01*
X77453Y76511D01*
X77649Y76412D01*
X77856Y76344D01*
X78043Y76304D01*
X78220Y76275D01*
X78299Y76265D01*
X78368D01*
X78417Y76255D01*
X78496D01*
Y75182D01*
X78240Y75192D01*
X77994Y75232D01*
X77777Y75281D01*
X77581Y75340D01*
X77423Y75399D01*
X77354Y75428D01*
X77295Y75448D01*
X77256Y75468D01*
X77226Y75487D01*
X77207Y75497D01*
X77197D01*
X76980Y75625D01*
X76793Y75773D01*
X76636Y75920D01*
X76508Y76058D01*
X76400Y76196D01*
X76321Y76294D01*
X76301Y76334D01*
X76282Y76363D01*
X76262Y76383D01*
Y76393D01*
X76154Y76619D01*
X76065Y76845D01*
X76006Y77072D01*
X75967Y77278D01*
X75947Y77455D01*
X75937Y77534D01*
X75927Y77593D01*
Y77652D01*
Y77692D01*
Y77711D01*
Y77721D01*
X75937Y77918D01*
X75957Y78115D01*
X75986Y78292D01*
X76026Y78459D01*
X76085Y78616D01*
X76134Y78764D01*
X76193Y78892D01*
X76252Y79020D01*
X76321Y79128D01*
X76380Y79217D01*
X76429Y79305D01*
X76478Y79364D01*
X76528Y79423D01*
X76557Y79463D01*
X76577Y79482D01*
X76587Y79492D01*
X76715Y79610D01*
X76843Y79709D01*
X76980Y79797D01*
X77118Y79876D01*
X77256Y79945D01*
X77394Y79994D01*
X77659Y80073D01*
X77787Y80102D01*
X77895Y80122D01*
X77994Y80142D01*
X78082Y80152D01*
X78151Y80161D01*
X78250D01*
X78456Y80152D01*
X78653Y80122D01*
X78830Y80083D01*
X78988Y80043D01*
X79106Y80004D01*
X79204Y79965D01*
X79263Y79935D01*
X79273Y79925D01*
X79283D01*
X79450Y79827D01*
X79598Y79719D01*
X79735Y79601D01*
X79854Y79482D01*
X79952Y79374D01*
X80031Y79295D01*
X80070Y79236D01*
X80090Y79227D01*
Y79217D01*
X80218Y79020D01*
X80336Y78794D01*
X80454Y78567D01*
X80552Y78351D01*
X80641Y78144D01*
X80670Y78066D01*
X80700Y77987D01*
X80729Y77928D01*
X80739Y77878D01*
X80759Y77849D01*
Y77839D01*
X80818Y77682D01*
X80877Y77524D01*
X80936Y77396D01*
X80995Y77268D01*
X81054Y77150D01*
X81103Y77052D01*
X81162Y76963D01*
X81202Y76885D01*
X81251Y76816D01*
X81290Y76757D01*
X81330Y76708D01*
X81359Y76668D01*
X81398Y76619D01*
X81418Y76599D01*
X81556Y76481D01*
X81713Y76402D01*
X81871Y76344D01*
X82028Y76294D01*
X82176Y76275D01*
X82284Y76265D01*
X82333Y76255D01*
X82392D01*
X82609Y76275D01*
X82806Y76314D01*
X82973Y76363D01*
X83121Y76432D01*
X83229Y76501D01*
X83307Y76550D01*
X83357Y76590D01*
X83376Y76609D01*
X83494Y76757D01*
X83583Y76924D01*
X83642Y77101D01*
X83681Y77268D01*
X83711Y77426D01*
X83721Y77495D01*
Y77554D01*
X83731Y77603D01*
Y77642D01*
Y77662D01*
Y77672D01*
X83721Y77810D01*
X83711Y77938D01*
X83662Y78184D01*
X83593Y78380D01*
X83514Y78557D01*
X83435Y78695D01*
X83367Y78794D01*
X83337Y78823D01*
X83317Y78853D01*
X83298Y78863D01*
Y78872D01*
X83209Y78951D01*
X83121Y79010D01*
X82924Y79118D01*
X82717Y79197D01*
X82520Y79246D01*
X82353Y79286D01*
X82274Y79295D01*
X82205D01*
X82156Y79305D01*
X82077D01*
Y80378D01*
X82353Y80358D01*
D02*
G37*
G36*
X84528Y48782D02*
X83613D01*
Y52117D01*
X76046D01*
Y53190D01*
X84528D01*
Y48782D01*
D02*
G37*
G36*
X79037Y133439D02*
X85512D01*
Y131786D01*
X77010D01*
Y131963D01*
X78279Y135062D01*
X79657D01*
X79037Y133439D01*
D02*
G37*
G36*
X67895Y113745D02*
X67659Y113735D01*
X67443Y113705D01*
X67265Y113666D01*
X67118Y113627D01*
X67000Y113587D01*
X66911Y113548D01*
X66862Y113519D01*
X66842Y113509D01*
X66714Y113410D01*
X66626Y113312D01*
X66557Y113204D01*
X66518Y113095D01*
X66488Y113007D01*
X66478Y112938D01*
X66468Y112889D01*
Y112869D01*
X66478Y112741D01*
X66518Y112623D01*
X66567Y112534D01*
X66626Y112456D01*
X66695Y112387D01*
X66744Y112347D01*
X66783Y112318D01*
X66793Y112308D01*
X66921Y112239D01*
X67069Y112190D01*
X67216Y112161D01*
X67354Y112131D01*
X67482Y112121D01*
X67590Y112111D01*
X67679D01*
X67836Y112121D01*
X67994Y112141D01*
X68141Y112180D01*
X68279Y112210D01*
X68397Y112249D01*
X68486Y112288D01*
X68545Y112308D01*
X68555Y112318D01*
X68564D01*
X68742Y112407D01*
X68919Y112505D01*
X69096Y112613D01*
X69263Y112721D01*
X69401Y112820D01*
X69519Y112899D01*
X69558Y112928D01*
X69588Y112948D01*
X69607Y112958D01*
X69617Y112967D01*
X72540Y115260D01*
X73701D01*
Y110261D01*
X72333D01*
Y113145D01*
X70778Y112052D01*
X70582Y111885D01*
X70395Y111737D01*
X70218Y111600D01*
X70040Y111472D01*
X69883Y111363D01*
X69735Y111255D01*
X69598Y111167D01*
X69470Y111088D01*
X69361Y111019D01*
X69253Y110960D01*
X69174Y110911D01*
X69096Y110872D01*
X69046Y110842D01*
X68997Y110822D01*
X68978Y110803D01*
X68968D01*
X68692Y110685D01*
X68427Y110596D01*
X68181Y110537D01*
X67964Y110488D01*
X67866Y110478D01*
X67777Y110468D01*
X67698Y110458D01*
X67639D01*
X67580Y110448D01*
X67511D01*
X67305Y110458D01*
X67108Y110478D01*
X66921Y110507D01*
X66744Y110547D01*
X66587Y110596D01*
X66439Y110645D01*
X66311Y110704D01*
X66193Y110763D01*
X66085Y110822D01*
X65986Y110881D01*
X65908Y110931D01*
X65848Y110980D01*
X65799Y111019D01*
X65760Y111049D01*
X65740Y111068D01*
X65730Y111078D01*
X65622Y111206D01*
X65524Y111334D01*
X65435Y111472D01*
X65366Y111619D01*
X65307Y111767D01*
X65258Y111915D01*
X65179Y112190D01*
X65150Y112328D01*
X65130Y112446D01*
X65120Y112554D01*
X65110Y112653D01*
X65101Y112731D01*
Y112790D01*
Y112830D01*
Y112839D01*
X65120Y113105D01*
X65160Y113361D01*
X65219Y113587D01*
X65278Y113784D01*
X65317Y113863D01*
X65347Y113942D01*
X65376Y114011D01*
X65406Y114060D01*
X65435Y114109D01*
X65445Y114138D01*
X65465Y114158D01*
Y114168D01*
X65612Y114374D01*
X65770Y114552D01*
X65937Y114709D01*
X66094Y114837D01*
X66242Y114935D01*
X66360Y115014D01*
X66409Y115044D01*
X66439Y115053D01*
X66459Y115073D01*
X66468D01*
X66714Y115181D01*
X66960Y115260D01*
X67206Y115319D01*
X67423Y115358D01*
X67521Y115368D01*
X67610Y115378D01*
X67698Y115388D01*
X67767D01*
X67817Y115398D01*
X67895D01*
Y113745D01*
D02*
G37*
G36*
X82442Y141448D02*
X82727Y141429D01*
X83003Y141389D01*
X83249Y141350D01*
X83485Y141301D01*
X83691Y141242D01*
X83888Y141183D01*
X84065Y141124D01*
X84213Y141065D01*
X84351Y141006D01*
X84459Y140947D01*
X84557Y140897D01*
X84626Y140858D01*
X84685Y140829D01*
X84715Y140809D01*
X84725Y140799D01*
X84882Y140671D01*
X85020Y140533D01*
X85148Y140396D01*
X85246Y140248D01*
X85335Y140091D01*
X85413Y139943D01*
X85473Y139795D01*
X85512Y139657D01*
X85551Y139520D01*
X85581Y139392D01*
X85600Y139284D01*
X85620Y139185D01*
Y139097D01*
X85630Y139038D01*
Y138998D01*
Y138988D01*
X85620Y138772D01*
X85591Y138575D01*
X85541Y138378D01*
X85482Y138201D01*
X85413Y138044D01*
X85335Y137896D01*
X85256Y137758D01*
X85167Y137630D01*
X85079Y137522D01*
X85000Y137434D01*
X84921Y137355D01*
X84853Y137286D01*
X84794Y137237D01*
X84744Y137198D01*
X84715Y137178D01*
X84705Y137168D01*
X84518Y137060D01*
X84321Y136961D01*
X84105Y136873D01*
X83888Y136794D01*
X83662Y136735D01*
X83446Y136686D01*
X83219Y136646D01*
X83003Y136607D01*
X82806Y136578D01*
X82619Y136558D01*
X82442Y136548D01*
X82294Y136538D01*
X82176Y136528D01*
X80464D01*
X80149Y136538D01*
X79864Y136558D01*
X79588Y136588D01*
X79332Y136637D01*
X79096Y136686D01*
X78880Y136735D01*
X78693Y136794D01*
X78516Y136853D01*
X78358Y136912D01*
X78220Y136971D01*
X78102Y137030D01*
X78004Y137080D01*
X77935Y137119D01*
X77876Y137148D01*
X77846Y137168D01*
X77837Y137178D01*
X77669Y137306D01*
X77532Y137434D01*
X77404Y137581D01*
X77305Y137729D01*
X77217Y137876D01*
X77138Y138034D01*
X77079Y138181D01*
X77030Y138319D01*
X76990Y138457D01*
X76961Y138585D01*
X76941Y138703D01*
X76921Y138802D01*
Y138880D01*
X76912Y138949D01*
Y138988D01*
Y138998D01*
X76921Y139215D01*
X76951Y139421D01*
X77000Y139608D01*
X77059Y139786D01*
X77128Y139953D01*
X77207Y140100D01*
X77296Y140238D01*
X77374Y140356D01*
X77463Y140464D01*
X77551Y140563D01*
X77630Y140642D01*
X77699Y140710D01*
X77758Y140760D01*
X77807Y140799D01*
X77837Y140819D01*
X77846Y140829D01*
X78034Y140937D01*
X78230Y141035D01*
X78437Y141124D01*
X78653Y141193D01*
X78880Y141252D01*
X79106Y141301D01*
X79322Y141350D01*
X79539Y141379D01*
X79736Y141409D01*
X79923Y141429D01*
X80100Y141439D01*
X80247Y141448D01*
X80366Y141458D01*
X82137D01*
X82442Y141448D01*
D02*
G37*
G36*
X84528Y42956D02*
X83613D01*
Y46450D01*
X80611D01*
Y43448D01*
X79696D01*
Y46450D01*
X76961D01*
Y43015D01*
X76046D01*
Y47522D01*
X84528D01*
Y42956D01*
D02*
G37*
G36*
Y37033D02*
X83613D01*
Y40526D01*
X80611D01*
Y37525D01*
X79696D01*
Y40526D01*
X76961D01*
Y37092D01*
X76046D01*
Y41598D01*
X84528D01*
Y37033D01*
D02*
G37*
G36*
X79706Y145985D02*
X79470Y145975D01*
X79254Y145945D01*
X79076Y145906D01*
X78929Y145867D01*
X78811Y145827D01*
X78722Y145788D01*
X78673Y145758D01*
X78653Y145748D01*
X78526Y145650D01*
X78437Y145552D01*
X78368Y145443D01*
X78329Y145335D01*
X78299Y145247D01*
X78289Y145178D01*
X78279Y145129D01*
Y145109D01*
X78289Y144981D01*
X78329Y144863D01*
X78378Y144774D01*
X78437Y144696D01*
X78506Y144627D01*
X78555Y144587D01*
X78594Y144558D01*
X78604Y144548D01*
X78732Y144479D01*
X78880Y144430D01*
X79027Y144400D01*
X79165Y144371D01*
X79293Y144361D01*
X79401Y144351D01*
X79490D01*
X79647Y144361D01*
X79805Y144381D01*
X79952Y144420D01*
X80090Y144450D01*
X80208Y144489D01*
X80297Y144528D01*
X80356Y144548D01*
X80366Y144558D01*
X80375D01*
X80553Y144646D01*
X80730Y144745D01*
X80907Y144853D01*
X81074Y144961D01*
X81212Y145060D01*
X81330Y145138D01*
X81369Y145168D01*
X81399Y145188D01*
X81418Y145197D01*
X81428Y145207D01*
X84351Y147500D01*
X85512D01*
Y142501D01*
X84144D01*
Y145384D01*
X82589Y144292D01*
X82393Y144125D01*
X82206Y143977D01*
X82029Y143840D01*
X81851Y143712D01*
X81694Y143603D01*
X81546Y143495D01*
X81409Y143407D01*
X81281Y143328D01*
X81172Y143259D01*
X81064Y143200D01*
X80985Y143151D01*
X80907Y143111D01*
X80857Y143082D01*
X80808Y143062D01*
X80789Y143043D01*
X80779D01*
X80503Y142924D01*
X80238Y142836D01*
X79992Y142777D01*
X79775Y142728D01*
X79677Y142718D01*
X79588Y142708D01*
X79510Y142698D01*
X79450D01*
X79391Y142688D01*
X79322D01*
X79116Y142698D01*
X78919Y142718D01*
X78732Y142747D01*
X78555Y142787D01*
X78398Y142836D01*
X78250Y142885D01*
X78122Y142944D01*
X78004Y143003D01*
X77896Y143062D01*
X77797Y143121D01*
X77719Y143170D01*
X77659Y143220D01*
X77610Y143259D01*
X77571Y143289D01*
X77551Y143308D01*
X77541Y143318D01*
X77433Y143446D01*
X77335Y143574D01*
X77246Y143712D01*
X77177Y143859D01*
X77118Y144007D01*
X77069Y144154D01*
X76990Y144430D01*
X76961Y144568D01*
X76941Y144686D01*
X76931Y144794D01*
X76921Y144892D01*
X76912Y144971D01*
Y145030D01*
Y145070D01*
Y145079D01*
X76931Y145345D01*
X76971Y145601D01*
X77030Y145827D01*
X77089Y146024D01*
X77128Y146103D01*
X77158Y146181D01*
X77187Y146250D01*
X77217Y146300D01*
X77246Y146349D01*
X77256Y146378D01*
X77276Y146398D01*
Y146408D01*
X77423Y146614D01*
X77581Y146792D01*
X77748Y146949D01*
X77905Y147077D01*
X78053Y147175D01*
X78171Y147254D01*
X78220Y147283D01*
X78250Y147293D01*
X78270Y147313D01*
X78279D01*
X78526Y147421D01*
X78772Y147500D01*
X79017Y147559D01*
X79234Y147598D01*
X79332Y147608D01*
X79421Y147618D01*
X79510Y147628D01*
X79578D01*
X79628Y147638D01*
X79706D01*
Y145985D01*
D02*
G37*
%LPC*%
G36*
X82147Y162000D02*
X80503D01*
X80267Y161990D01*
X80051Y161980D01*
X79844Y161961D01*
X79647Y161931D01*
X79470Y161892D01*
X79313Y161853D01*
X79165Y161813D01*
X79037Y161774D01*
X78919Y161734D01*
X78821Y161695D01*
X78742Y161656D01*
X78663Y161616D01*
X78614Y161587D01*
X78575Y161567D01*
X78555Y161548D01*
X78545D01*
X78427Y161459D01*
X78329Y161361D01*
X78230Y161252D01*
X78161Y161144D01*
X78092Y161036D01*
X78043Y160928D01*
X77955Y160711D01*
X77915Y160524D01*
X77896Y160436D01*
X77886Y160367D01*
X77876Y160298D01*
Y160258D01*
Y160229D01*
Y160219D01*
X77886Y160052D01*
X77905Y159894D01*
X77935Y159757D01*
X77974Y159619D01*
X78034Y159501D01*
X78083Y159393D01*
X78142Y159294D01*
X78201Y159206D01*
X78270Y159127D01*
X78329Y159058D01*
X78378Y158999D01*
X78427Y158950D01*
X78476Y158920D01*
X78506Y158891D01*
X78526Y158871D01*
X78535D01*
X78663Y158792D01*
X78811Y158723D01*
X78968Y158664D01*
X79126Y158615D01*
X79460Y158537D01*
X79785Y158487D01*
X79933Y158468D01*
X80070Y158448D01*
X80198Y158438D01*
X80316D01*
X80405Y158428D01*
X82127D01*
X82363Y158438D01*
X82579Y158458D01*
X82786Y158477D01*
X82973Y158507D01*
X83150Y158546D01*
X83308Y158576D01*
X83455Y158625D01*
X83573Y158664D01*
X83692Y158704D01*
X83790Y158743D01*
X83869Y158782D01*
X83938Y158812D01*
X83987Y158842D01*
X84026Y158861D01*
X84046Y158871D01*
X84056Y158881D01*
X84164Y158969D01*
X84262Y159058D01*
X84341Y159156D01*
X84410Y159265D01*
X84469Y159373D01*
X84528Y159491D01*
X84597Y159707D01*
X84646Y159904D01*
X84656Y159983D01*
X84666Y160062D01*
X84676Y160121D01*
Y160170D01*
Y160199D01*
Y160209D01*
X84666Y160377D01*
X84646Y160524D01*
X84616Y160662D01*
X84567Y160800D01*
X84518Y160918D01*
X84459Y161026D01*
X84400Y161124D01*
X84331Y161223D01*
X84272Y161302D01*
X84213Y161370D01*
X84154Y161429D01*
X84105Y161469D01*
X84056Y161508D01*
X84026Y161538D01*
X84006Y161548D01*
X83996Y161557D01*
X83859Y161636D01*
X83721Y161705D01*
X83396Y161813D01*
X83072Y161892D01*
X82757Y161941D01*
X82599Y161961D01*
X82462Y161980D01*
X82343Y161990D01*
X82235D01*
X82147Y162000D01*
D02*
G37*
G36*
X70542Y144573D02*
X67521Y143786D01*
X70542Y142989D01*
Y144573D01*
D02*
G37*
G36*
X72274Y137823D02*
X66645D01*
Y137203D01*
X66655Y137056D01*
X66675Y136928D01*
X66705Y136800D01*
X66734Y136692D01*
X66773Y136583D01*
X66813Y136495D01*
X66911Y136337D01*
X67000Y136219D01*
X67069Y136141D01*
X67128Y136091D01*
X67137Y136072D01*
X67147D01*
X67246Y136013D01*
X67354Y135963D01*
X67472Y135914D01*
X67600Y135875D01*
X67875Y135816D01*
X68151Y135776D01*
X68279Y135767D01*
X68397Y135757D01*
X68505Y135747D01*
X68604Y135737D01*
X70267D01*
X70464Y135747D01*
X70650Y135757D01*
X70828Y135776D01*
X70975Y135806D01*
X71123Y135836D01*
X71251Y135865D01*
X71369Y135895D01*
X71467Y135934D01*
X71556Y135963D01*
X71625Y135993D01*
X71693Y136032D01*
X71743Y136052D01*
X71782Y136082D01*
X71811Y136091D01*
X71821Y136111D01*
X71831D01*
X71910Y136180D01*
X71979Y136259D01*
X72087Y136446D01*
X72166Y136643D01*
X72215Y136839D01*
X72254Y137026D01*
X72264Y137105D01*
Y137174D01*
X72274Y137233D01*
Y137272D01*
Y137302D01*
Y137312D01*
Y137823D01*
D02*
G37*
G36*
X70542Y127481D02*
X67521Y126694D01*
X70542Y125897D01*
Y127481D01*
D02*
G37*
G36*
X69174Y158359D02*
X66645D01*
Y157356D01*
X66655Y157178D01*
X66705Y157031D01*
X66764Y156893D01*
X66842Y156785D01*
X66941Y156687D01*
X67049Y156608D01*
X67167Y156539D01*
X67285Y156490D01*
X67403Y156441D01*
X67521Y156411D01*
X67629Y156391D01*
X67728Y156381D01*
X67807Y156372D01*
X67866Y156362D01*
X67925D01*
X68131Y156372D01*
X68309Y156401D01*
X68466Y156441D01*
X68594Y156490D01*
X68702Y156539D01*
X68781Y156578D01*
X68820Y156608D01*
X68840Y156618D01*
X68948Y156726D01*
X69037Y156844D01*
X69096Y156972D01*
X69135Y157100D01*
X69155Y157208D01*
X69165Y157297D01*
X69174Y157366D01*
Y157375D01*
Y157385D01*
Y158359D01*
D02*
G37*
G36*
X82402Y139815D02*
X80120D01*
X79952Y139805D01*
X79795D01*
X79647Y139786D01*
X79510Y139776D01*
X79264Y139726D01*
X79057Y139677D01*
X78880Y139608D01*
X78732Y139540D01*
X78604Y139471D01*
X78506Y139392D01*
X78437Y139323D01*
X78378Y139244D01*
X78338Y139185D01*
X78309Y139126D01*
X78289Y139067D01*
X78279Y139028D01*
Y139008D01*
Y138998D01*
X78289Y138920D01*
X78299Y138851D01*
X78358Y138723D01*
X78437Y138614D01*
X78526Y138526D01*
X78624Y138467D01*
X78703Y138418D01*
X78762Y138388D01*
X78772Y138378D01*
X78781D01*
X78880Y138339D01*
X78988Y138310D01*
X79224Y138260D01*
X79480Y138231D01*
X79726Y138201D01*
X79834D01*
X79942Y138191D01*
X80041D01*
X80120Y138181D01*
X82540D01*
X82698Y138191D01*
X82855Y138201D01*
X82993Y138221D01*
X83121Y138231D01*
X83239Y138250D01*
X83347Y138270D01*
X83446Y138290D01*
X83524Y138310D01*
X83603Y138329D01*
X83662Y138339D01*
X83711Y138359D01*
X83750Y138368D01*
X83780Y138378D01*
X83790Y138388D01*
X83800D01*
X83878Y138427D01*
X83947Y138467D01*
X84065Y138565D01*
X84144Y138664D01*
X84203Y138762D01*
X84233Y138851D01*
X84252Y138920D01*
X84262Y138969D01*
Y138988D01*
X84252Y139067D01*
X84242Y139136D01*
X84184Y139264D01*
X84105Y139372D01*
X84016Y139461D01*
X83928Y139530D01*
X83849Y139579D01*
X83790Y139608D01*
X83780Y139618D01*
X83770D01*
X83672Y139648D01*
X83564Y139687D01*
X83318Y139736D01*
X83062Y139766D01*
X82816Y139786D01*
X82698Y139795D01*
X82589Y139805D01*
X82491D01*
X82402Y139815D01*
D02*
G37*
%LPD*%
D19*
X8232Y37482D02*
G03*
X8232Y37482I-500J0D01*
G01*
X46654Y24606D02*
Y41339D01*
X591Y24606D02*
Y41339D01*
X46654D01*
X16929Y21654D02*
X39370D01*
X43701D01*
X46654Y24606D01*
X3937Y21654D02*
X16929D01*
X591Y24606D02*
X3543Y21654D01*
X47102Y41419D02*
Y171340D01*
X-142D02*
X47102D01*
X-142Y41419D02*
Y171340D01*
Y41419D02*
X47102D01*
X17717Y177212D02*
X21715D01*
X19716Y179211D02*
Y175212D01*
X46191Y55409D02*
X42192Y51411D01*
X46191D02*
X42192Y55409D01*
X46191Y53410D02*
X42192D01*
X44191Y51411D02*
Y55409D01*
X44293Y177954D02*
X43505Y178741D01*
Y180315D01*
X44293Y181102D01*
X47441D01*
X48228Y180315D01*
Y178741D01*
X47441Y177954D01*
X43505Y174018D02*
Y175592D01*
X44293Y176380D01*
X47441D01*
X48228Y175592D01*
Y174018D01*
X47441Y173231D01*
X44293D01*
X43505Y174018D01*
X55118Y170276D02*
X50395D01*
Y167914D01*
X51182Y167127D01*
X52757D01*
X53544Y167914D01*
Y170276D01*
Y168701D02*
X55118Y167127D01*
X51182Y162404D02*
X50395Y163191D01*
Y164766D01*
X51182Y165553D01*
X54331D01*
X55118Y164766D01*
Y163191D01*
X54331Y162404D01*
X55118Y160830D02*
Y159256D01*
Y160043D01*
X50395D01*
X51182Y160830D01*
D25*
X32047Y172244D02*
Y182087D01*
X31299Y172244D02*
Y182087D01*
X33661D01*
X31299Y172244D02*
X33661D01*
M02*
