M48
;Layer_Color=9474304
;FILE_FORMAT=2:5
INCH,LZ
;TYPE=PLATED
T1F00S00C0.01181
T2F00S00C0.01968
T3F00S00C0.04331
%
T01
X0089425Y0037482
Y0041419
X0094346
X0098283
Y0045356
X0094346
Y0049293
X0098283
X010222
Y0045356
Y0041419
Y0037482
X0098283
X0094346
Y0057167
X0098283
Y0061104
X0094346
X0090409
Y0057167
Y0065041
X0094346
X0098283
Y0068978
X0094346
X0090409
X010222
Y0065041
Y0061104
Y0057167
X0085488
X0082535
Y0061104
X0085488
X0074661Y0059135
Y0055198
Y0051261
X0070724
X0066787
Y0047324
X0070724
X0074661
X0070724Y0055198
X0066787
Y0059135
X0070724
Y0067009
X0066787
Y0070946
X0070724
X0074661
Y0067009
X006285
Y0070946
X0057929
X0054976
Y0067009
X0057929Y0067009
X0047102Y0068978
X0043165
X0039228
Y0065041
X0043165
Y0061104
X0039228
X0035291
Y0065041
Y0068978
X003037Y0061104
X0027417
X0021654Y0062992
X0017717Y0059055
X0019685Y0068898
X0003937
Y0041339
X0009843Y0023622
X0021654Y0015748
X0027559Y0021654
X0035433Y0009843
X0047244Y0003937
X0059055
X0054976Y0012875
Y0016812
X0051039
Y0020749
X0054976
Y0027639
X0057929
Y0031576
X0054976Y0031576
X006285
Y0027639
X0066787
X0070724
Y0031576
X0066787
Y0035513
X0070724
X006285
Y003945
X0066787
X0061866Y0047324
X0058913
Y0051261
X0061866
X0047102Y0061104
Y0065041
X0051039Y0012875
X0074661Y0027639
Y0031576
X0081551Y0037482
Y0041419
X0085488
Y0037482
X0086472Y0076852
Y0080789
X0074661Y007882
Y0074883
X0070724
X0066787
Y007882
X0070724
Y0086694
X0066787
Y0090631
X0070724
Y0094568
X0066787
Y0098505
X0070724
X0074661
Y0094568
Y0090631
Y0086694
X0061866
X0058913
Y0090631
X0061866
X006285Y007882
Y0074883
X0047102Y0076852
Y0080789
Y0084726
Y0088663
X0043165
X0039228
Y0084726
X0043165
Y0080789
X0039228
Y0076852
X0043165
X0034307
X0031354
Y0080789
X0034307
X0018701Y0080709
X0024465Y0087678
X0029386Y00926
X003037Y0096537
X0027417
Y0100474
X003037
X0035291
Y0096537
X0039228
X0043165
Y0100474
X0039228
Y0104411
X0043165
Y0108348
X0039228
X0035291
Y0104411
X003037Y0111301
X0031354Y0116222
X0034307
Y0120159
X0031354
X0039228
X0043165
Y0124096
X0039228
Y0128033
X0043165
X0047102
Y0124096
Y0120159
Y0116222
X0043165
X0039228
X0047102Y0108348
Y0104411
Y0100474
Y0096537
X0054976Y0106379
X0057929
Y0110316
X0054976
X006285
Y0106379
X0066787
X0070724
X0074661
Y0110316
Y0114253
Y011819
X0070724
X0066787
Y0114253
X0070724
Y0110316
X0066787
X006285Y0114253
Y011819
X0061866Y0126064
X0058913
Y0130001
X0061866
X0066787
X0070724
Y0126064
X0066787
X0074661
Y0130001
Y0133938
X0070724
X0066787
Y0137875
X0070724
X0074661
Y0145749
X0070724
X0066787
Y0149686
X0070724
Y0153623
X0066787
Y015756
X0070724
X0074661
Y0153623
Y0149686
X006285
Y0153623
Y015756
X0061866Y0165434
X0058913Y0165434
Y0169371
X0061866Y0169371
X0066787
X0070724
Y0165434
X0066787
X0074661
Y0169371
X0070724Y0173309
X0066787
X0059055Y0187008
Y0192913
X0047244
Y0187008
X0031496
X0017717Y0179134
X0005906Y017126
X0003937Y0155512
X0015748
X0019685
X0018701Y0137795
Y0129921
Y011811
Y0106299
X0022496Y0108348
X0018701Y0094488
X0003937
Y0106299
Y011811
Y0129921
Y0141732
X0027417Y0139844
X003037
Y0135907
X0027417
X0035291
X0039228
X0043165
Y0139844
X0039228
X0035291
Y0143781
X0039228
X0043165
Y0147718
X0039228
X0035291
X0047102
Y0143781
Y0139844
Y0135907
X0054976Y0145749
X0057929
Y0149686
X0054976
X006285Y0145749
X0082535Y0139844
X0085488
Y0135907
X0082535
X0086472Y0120159
Y0116222
X0085488Y0100474
X0082535
Y0096537
X0085488
X0086472Y0155592
Y0159529
X0003937Y0080709
X0089425Y0080789
Y0076852
X0094346
X0098283
Y0080789
X0094346
Y0084726
X0098283
X010222
Y0080789
Y0076852
Y0088663
X0098283
X0094346
Y0096537
X0098283
X010222
Y0100474
Y0104411
Y0108348
X0098283
X0094346
X0090409
Y0104411
X0094346
X0098283
Y0100474
X0094346
X0090409
Y0096537
X0089425Y0116222
Y0120159
X0094346
X0098283
Y0124096
X0094346
Y0128033
X0098283
X010222
Y0124096
Y0120159
Y0116222
X0098283
X0094346
Y0135907
X0098283
X010222
Y0139844
Y0143781
Y0147718
X0098283
X0094346
X0090409
Y0143781
X0094346
X0098283
Y0139844
X0094346
X0090409
Y0135907
X0089425Y0155592
Y0159529
X0094346
X0098283
Y0163466
X0094346
Y0167403
X0098283
X010222
Y0163466
Y0159529
Y0155592
X0098283
X0094346
T02
X0008858Y004626
X0038386
T03
X0008858Y0031496
X0018701
X0028543
X0038386
M30
